#N canvas -9 -9 2560 976 10;
#X obj 75 20 inlet;
#X msg 131 85 seed \$1;
#X obj 500 166 s \$0-urn;
#X msg 500 145 resize \$1;
#X obj 366 45 loadbang;
#X obj 366 67 f \$1;
#X obj 366 87 sel 0;
#X msg 366 108 100;
#X obj 129 312 random, f 7;
#X obj 407 87 inlet;
#X obj 131 62 route seed clear, f 19;
#X obj 75 41 route bang;
#X obj 187 85 b;
#X obj 393 232 until;
#X obj 393 190 f, f 5;
#X obj 393 310 tabwrite \$0-urn;
#X obj 393 267 f;
#X obj 463 251 + 1;
#X msg 464 226 0;
#X obj 393 210 t f b;
#X obj 393 288 t f f;
#N canvas 812 547 396 70 nuttin 0;
#X obj 13 7 inlet;
#X obj 13 28 outlet;
#X connect 0 0 1 0;
#X restore 420 151 pd nuttin;
#X obj 393 130 t b f;
#X obj 90 166 f;
#X obj 75 203 f;
#X obj 75 307 - 1;
#X obj 140 372 tabread \$0-urn;
#X obj 42 351 tabread \$0-urn;
#X obj 42 372 tabwrite \$0-urn;
#X obj 231 393 outlet;
#X obj 326 371 outlet;
#X obj 75 267 t f b f b, f 23;
#X obj 326 329 f;
#X obj 25 175 sel 0;
#X msg 25 314 1;
#X msg 342 306 0;
#X obj 326 351 sel 1;
#X obj 393 332 table \$0-urn;
#X obj 46 26 bng 15 250 50 0 empty empty empty 17 7 0 10 -262144 -1
-1;
#X obj 140 392 s \$0-out;
#X obj 74 245 s \$0-position;
#X obj 187 32 r \$0-clear;
#X obj 49 3 r \$0-insistent;
#N canvas -9 -9 2560 976 last-number 0;
#X obj 115 264 outlet;
#X obj 20 112 t b b;
#X obj 20 91 sel 0;
#X obj 47 49 sel 1;
#X obj 47 152 s \$0-clear;
#X obj 20 172 s \$0-insistent;
#X obj 20 152 bng 15 250 50 0 empty empty empty 17 7 0 10 -262144 -1
-1;
#X obj 47 134 bng 15 250 50 0 empty empty empty 17 7 0 10 -262144 -1
-1;
#X obj 47 29 r \$0-position;
#X obj 20 9 r \$0-out;
#X obj 115 243 spigot;
#X msg 139 216 0, f 1;
#X msg 159 216 1, f 1;
#X obj 139 194 sel 1;
#X obj 139 173 r \$0-position;
#X msg 62 91 -0.1;
#X obj 115 131 t b b, f 8;
#X obj 115 152 value \$0-out;
#X obj 47 70 value \$0-out;
#X text 4 343 carvalhu@outlook.com.br;
#X text 4 291 UPDATE: Do not repeat the last number a previous list
in the first number in a new list.;
#X text 4 332 Eduardo Carvalho (15/02/2020);
#X connect 1 0 6 0;
#X connect 1 1 7 0;
#X connect 2 0 1 0;
#X connect 2 1 15 0;
#X connect 2 1 16 0;
#X connect 3 0 18 0;
#X connect 6 0 5 0;
#X connect 7 0 4 0;
#X connect 8 0 3 0;
#X connect 9 0 2 0;
#X connect 10 0 0 0;
#X connect 11 0 10 1;
#X connect 12 0 10 1;
#X connect 13 0 11 0;
#X connect 14 0 13 0;
#X connect 15 0 2 1;
#X connect 16 0 17 0;
#X connect 16 1 12 0;
#X connect 17 0 10 0;
#X connect 18 0 2 1;
#X restore 231 372 pd last-number;
#X obj 129 331 t a a;
#X obj 75 223 t a a;
#X connect 0 0 11 0;
#X connect 1 0 8 0;
#X connect 3 0 2 0;
#X connect 4 0 5 0;
#X connect 5 0 6 0;
#X connect 6 0 7 0;
#X connect 6 1 22 0;
#X connect 7 0 22 0;
#X connect 8 0 44 0;
#X connect 9 0 22 0;
#X connect 10 0 1 0;
#X connect 10 1 12 0;
#X connect 11 0 24 0;
#X connect 11 1 10 0;
#X connect 12 0 23 0;
#X connect 12 0 35 0;
#X connect 12 0 14 0;
#X connect 13 0 16 0;
#X connect 14 0 19 0;
#X connect 16 0 20 0;
#X connect 17 0 16 1;
#X connect 18 0 16 1;
#X connect 19 0 13 0;
#X connect 19 1 18 0;
#X connect 20 0 15 0;
#X connect 20 1 17 0;
#X connect 20 1 15 1;
#X connect 21 0 14 1;
#X connect 21 0 23 0;
#X connect 22 0 14 0;
#X connect 22 0 35 0;
#X connect 22 1 3 0;
#X connect 22 1 21 0;
#X connect 23 0 24 1;
#X connect 24 0 45 0;
#X connect 25 0 27 0;
#X connect 25 0 33 0;
#X connect 26 0 39 0;
#X connect 27 0 28 0;
#X connect 31 0 25 0;
#X connect 31 1 8 0;
#X connect 31 2 8 1;
#X connect 31 3 32 0;
#X connect 32 0 36 0;
#X connect 33 0 34 0;
#X connect 33 0 23 0;
#X connect 33 0 14 0;
#X connect 33 1 24 1;
#X connect 34 0 32 1;
#X connect 35 0 32 1;
#X connect 36 0 30 0;
#X connect 36 0 35 0;
#X connect 38 0 11 0;
#X connect 41 0 12 0;
#X connect 42 0 11 0;
#X connect 43 0 29 0;
#X connect 44 0 26 0;
#X connect 44 1 28 1;
#X connect 45 0 40 0;
#X connect 45 1 31 0;
